name rise49.8558peak67.6521fall70.3087.mot
datacolumns 19
datarows 12
range 8.56496500000000 8.58330400000000
endheader
time	ground_force1_vx	ground_force1_vy	ground_force1_vz	ground_force1_px	ground_force1_py	ground_force1_pz	ground_force2_vx	ground_force2_vy	ground_force2_vz	ground_force2_px	ground_force2_py	ground_force2_pz	ground_torque1_x	ground_torque1_y	ground_torque1_z	ground_torque2_x	ground_torque2_y	ground_torque2_z	
8.56496500000000	-52.17992800000000	831.95221900000001	60.76690500000000	0.15468400000000	0.00000000000000	0.11296500000000	0.00000000000000	0.00000000000000	0.00000000000000	0.00000000000000	0.00000000000000	0.00000000000000	0.00000000000000	28.86243600000000	0.00000000000000	0.00000000000000	0.00000000000000	0.00000000000000	
8.56663700000000	-52.60817600000000	831.42624400000000	60.89421500000000	0.15383000000000	0.00000000000000	0.11298100000000	0.00000000000000	0.00000000000000	0.00000000000000	0.00000000000000	0.00000000000000	0.00000000000000	0.00000000000000	28.84901400000000	0.00000000000000	0.00000000000000	0.00000000000000	0.00000000000000	
8.56829800000000	-53.04432300000000	830.76486599999998	61.00314600000000	0.15297700000000	0.00000000000000	0.11299500000000	0.00000000000000	0.00000000000000	0.00000000000000	0.00000000000000	0.00000000000000	0.00000000000000	0.00000000000000	28.83244600000000	0.00000000000000	0.00000000000000	0.00000000000000	0.00000000000000	
8.56996300000000	-53.48868200000000	829.96575399999995	61.09298300000000	0.15212500000000	0.00000000000000	0.11300600000000	-0.81241500000000	3.68608300000000	0.74693200000000	0.00000000000000	0.00000000000000	0.00000000000000	0.00000000000000	28.81278200000000	0.00000000000000	0.00000000000000	0.29878100000000	0.00000000000000	
8.57163800000000	-53.94153000000000	829.02669700000001	61.16302800000000	0.15127700000000	0.00000000000000	0.11301400000000	-1.32026200000000	7.00291000000000	1.27779900000000	0.00000000000000	0.00000000000000	0.00000000000000	0.00000000000000	28.79007100000000	0.00000000000000	0.00000000000000	0.51478300000000	0.00000000000000	
8.57330300000000	-54.40310800000000	827.94560300000001	61.21259500000000	0.15043100000000	0.00000000000000	0.11302000000000	-1.89794800000000	10.99589300000000	1.89550100000000	0.00000000000000	0.00000000000000	0.00000000000000	0.00000000000000	28.76436200000000	0.00000000000000	0.00000000000000	0.76697500000000	0.00000000000000	
8.57496700000000	-54.87362000000000	826.72049700000002	61.24101500000000	0.14958900000000	0.00000000000000	0.11302300000000	-2.52861600000000	15.61832400000000	2.58637900000000	0.00000000000000	0.00000000000000	0.00000000000000	0.00000000000000	28.73570200000000	0.00000000000000	0.00000000000000	1.05009400000000	0.00000000000000	
8.57663100000000	-55.35322600000000	825.34951999999998	61.24763400000000	0.14875300000000	0.00000000000000	0.11302200000000	-3.19086800000000	20.79308900000000	3.33196600000000	0.00000000000000	0.00000000000000	0.00000000000000	0.00000000000000	28.70413500000000	0.00000000000000	0.00000000000000	1.35693600000000	0.00000000000000	
8.57829700000000	-55.84204700000000	823.83092899999997	61.23182100000000	0.14792200000000	0.00000000000000	0.11301800000000	-3.86011400000000	26.41838500000000	4.11019900000000	0.36896400000000	0.00000000000000	-0.06935300000000	0.00000000000000	28.66970400000000	0.00000000000000	0.00000000000000	2.92764900000000	0.00000000000000	
8.57997300000000	-56.34016200000000	822.16309500000000	61.19296400000000	0.14709900000000	0.00000000000000	0.11301000000000	-4.51030900000000	32.37613200000000	4.89705300000000	0.37473000000000	0.00000000000000	-0.06965300000000	0.00000000000000	28.63244700000000	0.00000000000000	0.00000000000000	3.52727900000000	0.00000000000000	
8.58163400000000	-56.84760000000000	820.34450200000003	61.13047100000000	0.14628200000000	0.00000000000000	0.11299800000000	-5.11585700000000	38.54197500000000	5.66836900000000	0.38005300000000	0.00000000000000	-0.06992500000000	0.00000000000000	28.59239600000000	0.00000000000000	0.00000000000000	4.12652200000000	0.00000000000000	
8.58330400000000	-57.36434900000000	818.37374299999999	61.04377800000000	0.14547400000000	0.00000000000000	0.11298200000000	-5.65341200000000	44.79546500000000	6.40164200000000	0.38499600000000	0.00000000000000	-0.07017400000000	0.00000000000000	28.54958000000000	0.00000000000000	0.00000000000000	4.70868000000000	0.00000000000000	
